<svg viewBox="0 0 256 256" xmlns="http://www.w3.org/2000/svg"><path d="m128.35 243.41 81.11-222.51h-162.23z" fill="#f0de7f" stroke="#70683f" stroke-linecap="round" stroke-linejoin="round" stroke-width="4"/><path d="m97 87.34 5.42-10.91-7.6-3.34-5.53 10.91-7.46-3.28 5.48-10.88-7.73-3.4 2.8-6.44 8.05 3.54 6.2-12.33-8.7-3.83 2.8-6.37 9 3.94 5.48-10.87 7.47 3.28-5.48 10.88 7.66 3.37 5.41-10.91 7.43 3.3-5.48 10.9 7.72 3.4-2.8 6.37-8-3.54-6.14 12.36 8.63 3.8-2.8 6.37-9-3.94-5.48 10.87zm8.54-17.13 6.2-12.34-7.74-3.36-6.1 12.36z" fill="#70683f"/></svg>